# xmcd CD database file
#
# Track frame offsets:
#	150
#	20873
#	56258
#	75401
#	103628
#	128086
#	152501
#	186016
#	206581
#	236071
#
# Disc length: 3475 seconds
#
# Revision: 3
# Processed by: cddbd v1.5.2PL0 Copyright (c) Steve Scherf et al.
# Submitted via: CDex 1.70beta3
#
DISCID=780d910a
DTITLE=寺久保　エレナ - New York Attitude
DYEAR=2011
DGENRE=Jazz
TTITLE0=New York Attitude
TTITLE1=One For You
TTITLE2=Star Eyes
TTITLE3=Oriental Folksong
TTITLE4=hat's The Truth
TTITLE5=Invitation
TTITLE6=This Here
TTITLE7=Fascination
TTITLE8=Del Sasser
TTITLE9=Body And Soul
EXTD=YEAR: 2011
EXTT0=
EXTT1=
EXTT2=
EXTT3=
EXTT4=
EXTT5=
EXTT6=
EXTT7=
EXTT8=
EXTT9=
PLAYORDER=
